<svg width="82" viewBox="0 0 82 80" fill="none" xmlns="http://www.w3.org/2000/svg"><g clip-path="url(#mountains_svg__a)" stroke="#21294C" stroke-width="1.402" stroke-linecap="round" stroke-linejoin="round"><path d="m51.986 2.308 8.373 7.259-8.244 3.703-.129-10.962Z" fill="url(#mountains_svg__b)"></path><path d="m51.986 2.308 3.2-1.606 8.372 7.255-3.199 1.61-8.373-7.259Z" fill="url(#mountains_svg__c)"></path><path d="m46.265 25.594 22.612 53.004-43.286-6.084 20.674-46.92Z" fill="url(#mountains_svg__d)"></path><path d="m46.265 25.594 11.568-2.12 22.613 53.004-11.569 2.12-22.612-53.004Z" fill="url(#mountains_svg__e)"></path><path d="m31.006 39.649 22.468 33.317-45.07 6.335 22.602-39.652Z" fill="url(#mountains_svg__f)"></path><path d="M8.403 79.3.888 75.213 23.49 35.56l7.516 4.089L8.403 79.3Z" fill="url(#mountains_svg__g)"></path><path d="M36.49 47.781 25.591 72.514l15.542 2.187 12.34-1.735L36.49 47.78Z" fill="url(#mountains_svg__h)"></path><path d="M34.844 39.76 43.11 53.53l-5.53.778-2.21-3.677-3.433 7.912-4.083-5.21 6.991-13.571ZM46.153 25.732l-5.386 12.512 3.638.29 2.473 4.218 4.511-5.092-5.236-11.928Z" fill="#F1F3F6"></path><path d="M52.115 13.27V24.19"></path></g><defs><linearGradient id="mountains_svg__b" x1="51.986" y1="7.789" x2="60.359" y2="7.789" gradientUnits="userSpaceOnUse"><stop offset="0.47" stop-color="#B7EAD5"></stop><stop offset="1" stop-color="#E7EAFD"></stop></linearGradient><linearGradient id="mountains_svg__c" x1="66.889" y1="13.402" x2="52.534" y2="0.382" gradientUnits="userSpaceOnUse"><stop stop-color="#F2B3E5"></stop><stop offset="0.75" stop-color="#5869ED"></stop></linearGradient><linearGradient id="mountains_svg__d" x1="3945.16" y1="6685.63" x2="9518.03" y2="12579.5" gradientUnits="userSpaceOnUse"><stop offset="0.47" stop-color="#B7EAD5"></stop><stop offset="1" stop-color="#E7EAFD"></stop></linearGradient><linearGradient id="mountains_svg__e" x1="74.925" y1="77.975" x2="53.563" y2="28.238" gradientUnits="userSpaceOnUse"><stop offset="0.25" stop-color="#5869ED"></stop><stop offset="1" stop-color="#F4BD98"></stop></linearGradient><linearGradient id="mountains_svg__f" x1="1431.27" y1="9813.89" x2="5289.51" y2="6352.06" gradientUnits="userSpaceOnUse"><stop offset="0.47" stop-color="#B7EAD5"></stop><stop offset="1" stop-color="#E7EAFD"></stop></linearGradient><linearGradient id="mountains_svg__g" x1="420.737" y1="10210.7" x2="3740.42" y2="6262.79" gradientUnits="userSpaceOnUse"><stop stop-color="#F2B3E5"></stop><stop offset="0.75" stop-color="#5869ED"></stop></linearGradient><linearGradient id="mountains_svg__h" x1="25.591" y1="61.239" x2="53.474" y2="61.239" gradientUnits="userSpaceOnUse"><stop stop-color="#294487"></stop><stop offset="1" stop-color="#21303B"></stop></linearGradient><clipPath id="mountains_svg__a"><path fill="#fff" transform="translate(.185)" d="M0 0h80.963v80H0z"></path></clipPath></defs></svg>