<svg width="84" viewBox="0 0 84 80" fill="none" xmlns="http://www.w3.org/2000/svg"><g clip-path="url(#cycle_svg__a)"><path d="m34.68 18.9-.037 19.824-18.366 2.58.037-19.824L34.68 18.9Z" fill="url(#cycle_svg__b)" stroke="#21294C" stroke-width="1.428" stroke-linecap="round" stroke-linejoin="round"></path><path d="m16.277 41.303-8.727-4.75.037-19.82 8.727 4.747-.037 19.823Z" fill="url(#cycle_svg__c)" stroke="#21294C" stroke-width="1.428" stroke-linecap="round" stroke-linejoin="round"></path><path d="m16.314 21.48-8.727-4.747 18.365-2.583 8.728 4.75-18.366 2.58Z" fill="#F1F3F6" stroke="#21294C" stroke-width="1.428" stroke-linecap="round" stroke-linejoin="round"></path><path d="m16.314 21.48-8.727-4.747 18.365-2.583 8.728 4.75-18.366 2.58ZM16.314 41.263l-8.727-4.75 18.365-2.58 8.728 4.747-18.366 2.583Z" fill="#F1F3F6" stroke="#21294C" stroke-width="1.428" stroke-linecap="round" stroke-linejoin="round"></path><path d="m16.277 41.243.037.02 18.329-2.576v-.027l-8.69-4.727-9.666 1.357-.01 5.953Z" fill="url(#cycle_svg__d)" stroke="#21294C" stroke-width="1.428" stroke-linecap="round" stroke-linejoin="round"></path><path d="M71.922 32.485a29.66 29.66 0 0 0-3.79-17.57l-1.118.642a28.39 28.39 0 0 1 3.624 16.797l1.284.131ZM36.696.551a29.69 29.69 0 0 0-11.422 4.881l.742 1.055a28.346 28.346 0 0 1 10.915-4.67L36.696.551Zm18.026 2.13A29.676 29.676 0 0 0 36.696.55l.245 1.266a28.39 28.39 0 0 1 17.243 2.036l.538-1.172Zm13.41 12.235A29.69 29.69 0 0 0 54.722 2.68l-.538 1.172a28.383 28.383 0 0 1 12.83 11.704l1.118-.641Zm-46.86-5.15 7.31-1.418-4.884-5.62-2.425 7.038Zm46.3 5.469-.558.336.558-.336ZM2.124 34.662l-.443 1.529 1.24.359.443-1.529-1.24-.36Zm-.447 1.549a25.02 25.02 0 0 0-.517 9.742l1.277-.182a23.698 23.698 0 0 1 .49-9.248l-1.25-.312Zm.454-1.57c-.168.518-.32 1.041-.454 1.57l1.25.336c.128-.501.269-1.008.43-1.489l-1.226-.416Zm11.553 29.563a25.105 25.105 0 0 0 5.039 2.14l.373-1.236a23.574 23.574 0 0 1-4.784-2.016l-.628 1.112Zm-8.399-7.662a25.018 25.018 0 0 0 8.399 7.662l.631-1.125a23.711 23.711 0 0 1-7.958-7.27l-1.072.733ZM1.173 45.959A24.99 24.99 0 0 0 5.31 56.545l1.061-.733c-2.058-3-3.4-6.433-3.92-10.034l-1.277.181Zm1.143-9.587-.625-.161.625.16Zm22.326 30.352-5.711-4.774-1.277 7.337 6.988-2.563ZM1.798 45.869l.639-.09-.639.09Zm.948-11.029.618.181-1.233-.38.615.199Z" fill="#0A0A0A"></path><path d="M55.041 75.485A2.822 2.822 0 0 0 54 74.588c-2.866-1.63-9.93-2.311-15.79-1.525-3.534.474-5.815 1.38-6.433 2.378l11.66-18.943c.223.298.416.616.578.95l11.026 18.037Z" fill="#8D7FF6"></path><path d="m31.79 75.441 11.661-18.943L32.83 77.433c-1.132-.641-1.421-1.337-1.038-1.992Z" fill="#21303B" stroke="#21303B" stroke-width="1.428" stroke-linecap="round" stroke-linejoin="round"></path><path d="m43.451 56.498 11.59 18.987c.85 1.394-1.636 2.829-6.436 3.474-5.846.786-12.907.104-15.79-1.526l10.636-20.935Z" fill="url(#cycle_svg__e)" stroke="#21294C" stroke-width="1.428" stroke-linecap="round" stroke-linejoin="round"></path><path d="M55.303 76.1c.003-1.809-5.272-3.285-11.782-3.298-6.51-.012-11.79 1.444-11.794 3.253-.004 1.809 5.271 3.285 11.781 3.298 6.51.012 11.791-1.444 11.795-3.253Z" fill="url(#cycle_svg__f)" stroke="#21294C" stroke-width="1.428" stroke-linecap="round" stroke-linejoin="round"></path><path d="M25.952 33.933V14.15" stroke="#21294C" stroke-width="1.428" stroke-linecap="round" stroke-linejoin="round"></path><path d="m25.942 20.09 8.738-1.19-8.728-4.75-.01 5.94Z" fill="#F3AFC6" stroke="#21294C" stroke-width="1.428" stroke-linecap="round" stroke-linejoin="round"></path><path d="M63.12 64.738c-.336-.208-.816-.483-1.142-.729a12.802 12.802 0 0 1-1.586-1.343c-.228-.242-.537-.561-.755-.817a12.774 12.774 0 0 1-1.683-2.54c-.138-.295-.336-.691-.45-1.007-.115-.316-.246-.672-.336-.947a12.072 12.072 0 0 1-.42-1.784 15.497 15.497 0 0 1-.165-2.087 13.053 13.053 0 0 1 .722-4.24c.111-.318.28-.731.417-1.04.138-.31.309-.622.443-.887.18-.335.377-.659.592-.971.157-.245.396-.551.567-.786.244-.315.504-.617.78-.904a12.62 12.62 0 0 1 1.68-1.498c.467-.349.957-.665 1.467-.948.433-.244.882-.457 1.344-.638a12.86 12.86 0 0 1 9.07-.275c.528.178 1.043.391 1.542.638a13.075 13.075 0 0 1 3.212 2.247 12.93 12.93 0 0 1 2.483 3.276c.3.594.567 1.204.799 1.827.356 1.03.581 2.102.672 3.188.034.428.046.858.037 1.287-.017.312-.03.736-.064 1.048-.034.378-.087.754-.161 1.126-.135.706-.33 1.399-.581 2.072-.251.672-.557 1.323-.914 1.945a20.783 20.783 0 0 1-1.099 1.603c-.215.289-.55.631-.79.9a8.767 8.767 0 0 1-.671.648c-.299.262-.719.592-1.031.837-.276.21-.564.401-.864.574-.383.229-.907.507-1.31.702a12.6 12.6 0 0 1-1.911.706 13.037 13.037 0 0 1-3.037.477h-.561c-.168 0-.292 0-.561-.017 0 0-.407 0-.9-.077a12.968 12.968 0 0 1-3.484-.93c-.434-.162-.961-.427-1.35-.636Z" fill="#8FADF8"></path><path d="M63.12 64.739c-.221-.135-.52-.303-.735-.45a21.766 21.766 0 0 1-1.102-.817 15.424 15.424 0 0 1-1.344-1.293 8.505 8.505 0 0 1-.786-.951c-.43-.567-.807-1.17-1.129-1.804a45.042 45.042 0 0 1-.47-1.008 8.956 8.956 0 0 1-.336-.944 12.206 12.206 0 0 1-.48-2.09 13.01 13.01 0 0 1-.135-1.877c.017-.697.074-1.393.171-2.083.175-1.064.484-2.101.92-3.087.28-.642.618-1.257 1.009-1.838a13.026 13.026 0 0 1 2.781-3.06c.538-.43 1.11-.816 1.71-1.153.463-.257.94-.488 1.428-.692.615-.25 1.249-.454 1.894-.611a12.849 12.849 0 0 1 8.365.813c.303.148.706.336 1.008.514.255.138.503.29.743.453.215.155.51.336.718.514.286.222.672.531.928.776a12.96 12.96 0 0 1 2.59 3.326c.306.59.578 1.199.813 1.821a12.899 12.899 0 0 1 .695 5.405c-.026.42-.082.838-.168 1.25a12.745 12.745 0 0 1-1.431 3.974 22.637 22.637 0 0 1-1.078 1.623 13.137 13.137 0 0 1-2.953 2.758 12.883 12.883 0 0 1-11.825 1.37 7.013 7.013 0 0 1-.77-.336 16.753 16.753 0 0 1-1.007-.51" fill="url(#cycle_svg__g)"></path><path d="M63.12 64.739c-.221-.135-.52-.303-.735-.45a21.766 21.766 0 0 1-1.102-.817 15.424 15.424 0 0 1-1.344-1.293 8.505 8.505 0 0 1-.786-.951c-.43-.567-.807-1.17-1.129-1.804a45.042 45.042 0 0 1-.47-1.008 8.956 8.956 0 0 1-.336-.944 12.206 12.206 0 0 1-.48-2.09 13.01 13.01 0 0 1-.135-1.877c.017-.697.074-1.393.171-2.083.175-1.064.484-2.101.92-3.087.28-.642.618-1.257 1.009-1.838a13.026 13.026 0 0 1 2.781-3.06c.538-.43 1.11-.816 1.71-1.153.463-.257.94-.488 1.428-.692.615-.25 1.249-.454 1.894-.611a12.849 12.849 0 0 1 8.365.813c.303.148.706.336 1.008.514.255.138.503.29.743.453.215.155.51.336.718.514.286.222.672.531.928.776a12.96 12.96 0 0 1 2.59 3.326c.306.59.578 1.199.813 1.821a12.899 12.899 0 0 1 .695 5.405c-.026.42-.082.838-.168 1.25a12.745 12.745 0 0 1-1.431 3.974 22.637 22.637 0 0 1-1.078 1.623 13.137 13.137 0 0 1-2.953 2.758 12.883 12.883 0 0 1-11.825 1.37 7.013 7.013 0 0 1-.77-.336 16.753 16.753 0 0 1-1.007-.51" stroke="#21294C" stroke-width="1.428" stroke-linecap="round" stroke-linejoin="round"></path><path d="M69.385 66.418c-9.883 0-9.685-25.783.76-25.783" stroke="#21294C" stroke-width="1.428" stroke-linecap="round" stroke-linejoin="round"></path><path d="M70.145 40.621a12.9 12.9 0 0 0-5.557.948c-.488.204-.965.435-1.427.692-.601.336-1.173.722-1.71 1.152a13.026 13.026 0 0 0-2.782 3.06c-.39.581-.728 1.196-1.008 1.838a12.7 12.7 0 0 0-.92 3.087c-.097.69-.155 1.386-.172 2.083 0 .628.045 1.256.135 1.878.098.71.259 1.408.48 2.09.09.285.229.671.336.944.108.272.336.712.47 1.007.322.634.7 1.238 1.13 1.804.238.336.5.654.785.951.422.458.87.89 1.344 1.293.32.259.762.581 1.102.817.215.147.514.315.736.45.295.161.695.366 1.007.51.229.108.534.236.77.336.645.25 1.31.444 1.988.581.826.172 1.667.26 2.51.266-9.86.01-9.662-25.787.783-25.787Z" fill="url(#cycle_svg__h)" stroke="#21294C" stroke-width="1.428" stroke-linecap="round" stroke-linejoin="round"></path><path d="M82.319 54.15c0 9.883-25.783 9.685-25.783-.76" stroke="#21294C" stroke-width="1.428" stroke-linecap="round" stroke-linejoin="round"></path><path d="M82.319 54.15c0 9.58-24.231 9.688-25.71.168.019.354.055.707.108 1.058.099.709.26 1.408.48 2.09.091.285.23.671.337.943.107.272.336.712.47 1.008.322.634.7 1.238 1.129 1.804.238.336.501.653.786.95.421.459.87.89 1.344 1.294.319.259.762.581 1.101.816.215.148.514.316.736.45.296.162.695.367 1.008.511.228.108.534.235.77.336a12.885 12.885 0 0 0 11.825-1.37 13.142 13.142 0 0 0 2.952-2.759c.336-.473.783-1.118 1.079-1.622.343-.614.636-1.254.876-1.915.243-.67.429-1.358.555-2.06.085-.411.142-.829.167-1.249 0-.171 0-.316.02-.447l-.033-.006Z" fill="url(#cycle_svg__i)" stroke="#21294C" stroke-width="1.428" stroke-linecap="round" stroke-linejoin="round"></path><path d="m67.094 66.196.158.027h.06l.243.04h.023l.249.034h.067l.269.03h.04c.11.014.222.024.336.03h.05l.316.02H69.38c-3.108 0-5.22-2.549-6.33-6.046-3.389-1.112-5.992-3.128-6.446-6.047v.245c0 .08.017.212.027.313v.114c0 .134.03.265.05.386.099.71.26 1.409.48 2.09.091.285.23.672.337.944.107.272.336.712.47 1.008.322.633.7 1.237 1.129 1.803.238.336.501.654.786.951.421.458.87.89 1.343 1.294.32.258.763.58 1.102.816.215.148.514.316.736.45.296.161.695.366 1.008.51.228.108.534.236.77.337.645.249 1.31.443 1.988.58l.161.031.104.04Z" fill="#21303B" stroke="#21303B" stroke-width="1.428" stroke-linecap="round" stroke-linejoin="round"></path></g><defs><linearGradient id="cycle_svg__b" x1="16.277" y1="30.1" x2="34.68" y2="30.1" gradientUnits="userSpaceOnUse"><stop offset="0.47" stop-color="#B7EAD5"></stop><stop offset="1" stop-color="#E7EAFD"></stop></linearGradient><linearGradient id="cycle_svg__c" x1="7.55" y1="29.018" x2="16.314" y2="29.018" gradientUnits="userSpaceOnUse"><stop stop-color="#F2B3E5"></stop><stop offset="0.75" stop-color="#5869ED"></stop></linearGradient><linearGradient id="cycle_svg__d" x1="16.277" y1="37.598" x2="34.643" y2="37.598" gradientUnits="userSpaceOnUse"><stop offset="0.25" stop-color="#E7EAFD"></stop><stop offset="1" stop-color="#F4BD98"></stop></linearGradient><linearGradient id="cycle_svg__e" x1="32.829" y1="67.893" x2="55.206" y2="67.893" gradientUnits="userSpaceOnUse"><stop offset="0.25" stop-color="#5869ED"></stop><stop offset="1" stop-color="#F2B3E5"></stop></linearGradient><linearGradient id="cycle_svg__f" x1="31.786" y1="75.977" x2="55.369" y2="75.977" gradientUnits="userSpaceOnUse"><stop offset="0.25" stop-color="#E7EAFD"></stop><stop offset="1" stop-color="#F3AFC6"></stop></linearGradient><linearGradient id="cycle_svg__g" x1="56.583" y1="53.522" x2="82.386" y2="53.522" gradientUnits="userSpaceOnUse"><stop stop-color="#E7EAFD"></stop><stop offset="0.2" stop-color="#DEEAF6"></stop><stop offset="0.52" stop-color="#C6EAE2"></stop><stop offset="0.7" stop-color="#B7EAD5"></stop></linearGradient><linearGradient id="cycle_svg__h" x1="66305.5" y1="77087.4" x2="66305.5" y2="79126.2" gradientUnits="userSpaceOnUse"><stop stop-color="#F2B3E5"></stop><stop offset="0.75" stop-color="#5869ED"></stop></linearGradient><linearGradient id="cycle_svg__i" x1="56.61" y1="60.284" x2="82.363" y2="60.284" gradientUnits="userSpaceOnUse"><stop stop-color="#294487"></stop><stop offset="1" stop-color="#21303B"></stop></linearGradient><clipPath id="cycle_svg__a"><path fill="#fff" transform="translate(.901)" d="M0 0h82.197v80H0z"></path></clipPath></defs></svg>