<svg width="81" viewBox="0 0 81 80" fill="none" xmlns="http://www.w3.org/2000/svg"><g clip-path="url(#person_svg__a)" stroke="#21294C" stroke-width="1.633" stroke-linecap="round" stroke-linejoin="round"><path d="m12.318 39.716 5.379-5.114c6.578-6.247 15.787-9.705 25.976-8.864l-5.379 5.114c-10.189-.845-19.398 2.616-25.976 8.864Z" fill="#21303B"></path><path d="M38.294 30.852c19.937 1.648 36.074 19.16 36.035 39.12v9.221L2.117 73.22v-9.221c.027-19.96 16.237-34.798 36.177-33.146Z" fill="url(#person_svg__b)"></path><path d="m27.09 54.827 5.38-5.114c.499.768 9.989 14.961 15.256 22.707l-5.379 5.113c-5.275-7.745-14.757-21.96-15.257-22.706Z" fill="url(#person_svg__c)"></path><path d="m29.046 44.949 5.383-5.114-1.952 9.878-5.383 5.114 1.952-9.878Z" fill="#8D7FF6"></path><path d="m11.834 40.696 5.378-5.114C23.79 29.334 33 25.877 43.19 26.718l-5.38 5.114c-10.188-.865-19.398 2.597-25.975 8.864Z" fill="#21303B"></path><path d="M37.81 31.813c4.471.378 8.84 1.55 12.902 3.457l-6.344 4.088-15.33 5.59-1.955 9.879c.5.745 9.99 14.96 15.257 22.706L1.614 74.164v-9.221c.061-19.944 16.255-34.782 36.196-33.13Z" fill="url(#person_svg__d)"></path><path d="m43.677 25.738-5.38 5.114.477.046-.96.915c4.471.378 8.84 1.55 12.901 3.457l.834-.795c13.37 6.397 22.814 20.236 22.784 35.509v9.22l5.379-5.11v-9.22c.042-19.952-16.095-37.484-36.035-39.136Z" fill="url(#person_svg__e)"></path><path d="m52.337 29.622 1.725.611a16.863 16.863 0 0 0 4.891-11.81c0-9.72-8.483-17.609-18.96-17.609-10.478 0-18.965 7.888-18.965 17.609a17.005 17.005 0 0 0 5.878 12.748l3.97-.953 21.461-.596Z" fill="url(#person_svg__f)"></path><path d="m54.062 30.233-1.725-.61-21.447.595-3.968.953a19.979 19.979 0 0 0 27.14-.953v.015Z" fill="#8D7FF6"></path><path d="M39.992.814a19.529 19.529 0 0 0-14.534 6.302l8.398 5.897 10.086 3.3 8.395 13.31 2.201.107a16.85 16.85 0 0 0 4.415-11.307c0-9.72-8.483-17.609-18.96-17.609Z" fill="url(#person_svg__g)"></path></g><defs><linearGradient id="person_svg__b" x1="2.102" y1="54.953" x2="74.329" y2="54.953" gradientUnits="userSpaceOnUse"><stop offset="0.46" stop-color="#E7EAFD"></stop><stop offset="0.69" stop-color="#CFEAE9"></stop><stop offset="0.9" stop-color="#B7EAD5"></stop></linearGradient><linearGradient id="person_svg__c" x1="27.09" y1="63.625" x2="47.73" y2="63.625" gradientUnits="userSpaceOnUse"><stop stop-color="#F2B3E5"></stop><stop offset="1" stop-color="#5869ED"></stop></linearGradient><linearGradient id="person_svg__d" x1="1.94" y1="72.658" x2="27.721" y2="58.185" gradientUnits="userSpaceOnUse"><stop stop-color="#F4BD98"></stop><stop offset="1" stop-color="#F6C865"></stop></linearGradient><linearGradient id="person_svg__e" x1="37.81" y1="52.46" x2="79.712" y2="52.46" gradientUnits="userSpaceOnUse"><stop stop-color="#294487"></stop><stop offset="1" stop-color="#21303B"></stop></linearGradient><linearGradient id="person_svg__f" x1="238766" y1="88146.6" x2="242510" y2="88146.6" gradientUnits="userSpaceOnUse"><stop stop-color="#F2B3E5"></stop><stop offset="1" stop-color="#5869ED"></stop></linearGradient><linearGradient id="person_svg__g" x1="38.901" y1="2.785" x2="49.336" y2="29.377" gradientUnits="userSpaceOnUse"><stop stop-color="#E7EAFD"></stop><stop offset="0.54" stop-color="#CFEAE9"></stop><stop offset="1" stop-color="#B7EAD5"></stop></linearGradient><clipPath id="person_svg__a"><path fill="#fff" transform="translate(.803)" d="M0 0h79.727v80H0z"></path></clipPath></defs></svg>