<svg width="59" height="80" fill="none" xmlns="http://www.w3.org/2000/svg"><path d="m15.441 39.207 13.412 4.781-10.09 35.018-4.182-11.142-9.23 6.364 10.09-35.021Z" fill="#E7EAFD" stroke="#21294C" stroke-width="1.334" stroke-linecap="round" stroke-linejoin="round"></path><path d="m15.441 39.207 1.676-1.617 13.415 4.781-1.68 1.617-13.411-4.781Z" fill="#C2EBFC"></path><path d="m28.852 43.988 1.68-1.617L20.437 77.39l-1.677 1.617 10.09-35.018Z" fill="#C2EBFC" stroke="#21294C" stroke-width="1.334" stroke-linecap="round" stroke-linejoin="round"></path><path d="m43.152 68.22 1.68-1.617-4.094 10.565-1.68 1.617 4.094-10.565Z" fill="#94F7C1" stroke="#21294C" stroke-width="1.334" stroke-linecap="round" stroke-linejoin="round"></path><path d="m41.678 39.975 10.394 36.452-9.286-7.657-4.09 10.564L28.3 42.882l13.378-2.907Z" fill="url(#ribbon_svg__a)" stroke="#21294C" stroke-width="1.334" stroke-linecap="round" stroke-linejoin="round"></path><path d="m42.046 39.429 1.68-1.62L54.121 74.26l-1.68 1.617-10.395-36.45Z" fill="#21303B" stroke="#21294C" stroke-width="1.334" stroke-linecap="round" stroke-linejoin="round"></path><path d="m28.664 42.333 1.68-1.617 13.38-2.907-1.68 1.62-13.38 2.904Z" fill="#ADFBC6"></path><path d="m40.485 52.603-4.396 4.179c.178-.169.335-.357.468-.562l4.395-4.179c-.132.206-.29.394-.467.562Z" fill="#F2B3E5"></path><path d="m38.597 53.08 4.395-4.176a3.08 3.08 0 0 1 .462-.562l-4.395 4.178c-.176.168-.33.355-.462.56ZM9.173 12.624a3.068 3.068 0 0 0-1.114.679L3.664 17.48a3.066 3.066 0 0 1 1.114-.678l3.563-1.256c.418-.144.8-.376 1.121-.68l4.395-4.18a3.05 3.05 0 0 1-1.12.682l-3.564 1.255Z" fill="#8D7FF6" stroke="#21294C" stroke-width="1.334" stroke-linecap="round" stroke-linejoin="round"></path><path d="m53.343 37.768-4.396 4.178a3.211 3.211 0 0 0-.982 2.402l.069 3.89a3.197 3.197 0 0 1-.98 2.405l4.395-4.18a3.188 3.188 0 0 0 .98-2.4l-.07-3.894a3.219 3.219 0 0 1 .983-2.401Z" fill="#294487" stroke="#21294C" stroke-width="1.334" stroke-linecap="round" stroke-linejoin="round"></path><path d="m57.275 30.748-2.16-3.403a3.594 3.594 0 0 1-.424-3.017l1.178-3.604a3.745 3.745 0 0 0-1.925-4.395l-3.56-1.84a3.885 3.885 0 0 1-1.965-2.44l-1.014-3.833a3.843 3.843 0 0 0-3.337-2.825 3.432 3.432 0 0 0-.569 0l-3.83.314a3.36 3.36 0 0 1-.562 0 3.767 3.767 0 0 1-2.323-1.083l-2.876-2.845A3.749 3.749 0 0 0 31.585.694a3.224 3.224 0 0 0-2.33.7L26.37 3.758a3.237 3.237 0 0 1-2.326.7 3.837 3.837 0 0 1-.559-.09l-3.83-.942a3.634 3.634 0 0 0-.568-.095 3.212 3.212 0 0 0-2.493.854l-4.395 4.179a3.212 3.212 0 0 1 2.492-.854c.192.016.382.048.569.094l3.83.942c.184.047.372.078.562.094a3.243 3.243 0 0 0 2.323-.7l2.885-2.367a3.24 3.24 0 0 1 2.33-.7c.877.08 1.7.463 2.323 1.086L32.389 8.8a3.783 3.783 0 0 0 2.323 1.087c.187.015.375.015.562 0l3.83-.314c.19-.016.38-.016.568 0a3.849 3.849 0 0 1 3.338 2.825l1.014 3.833a3.882 3.882 0 0 0 1.965 2.437l3.56 1.84a3.748 3.748 0 0 1 1.925 4.395l-1.178 3.607a3.588 3.588 0 0 0 .424 3.014l2.16 3.403c.917 1.45.732 3.25-.392 4.32l4.395-4.179c1.124-1.073 1.303-2.872.392-4.32Z" fill="#B7EAD5" stroke="#21294C" stroke-width="1.334" stroke-linecap="round" stroke-linejoin="round"></path><path d="m38.595 53.079 4.398-4.179-2.04 3.14-4.399 4.178 2.04-3.139Z" fill="#F2B3E5"></path><path d="M27.188 4.857c.877.079 1.7.463 2.323 1.086l2.876 2.841A3.783 3.783 0 0 0 34.71 9.87c.187.016.375.016.562 0l3.83-.314c.19-.015.38-.015.568 0a3.849 3.849 0 0 1 3.337 2.826l1.015 3.833a3.88 3.88 0 0 0 1.965 2.436l3.56 1.84a3.748 3.748 0 0 1 1.925 4.395l-1.178 3.608a3.59 3.59 0 0 0 .424 3.014l2.16 3.403c.986 1.57.697 3.528-.672 4.552L49.217 41.7a3.195 3.195 0 0 0-1.255 2.634l.069 3.89a3.14 3.14 0 0 1-3.049 3.265l-3.852.157a3.14 3.14 0 0 0-2.533 1.42l-2.041 3.139a3.17 3.17 0 0 1-2.96 1.41 3.648 3.648 0 0 1-1.501-.468l-3.498-1.975a3.664 3.664 0 0 0-1.503-.465 3.309 3.309 0 0 0-1.504.217l-3.5 1.394a3.31 3.31 0 0 1-1.505.22 3.823 3.823 0 0 1-2.954-1.9l-2.028-3.475a3.856 3.856 0 0 0-2.511-1.837l-3.853-.797a3.833 3.833 0 0 1-3.035-3.768l.084-3.877a3.795 3.795 0 0 0-1.256-2.844l-2.979-2.728C.688 34.056.408 32.047 1.4 30.65l2.17-3.045a3.369 3.369 0 0 0 .436-2.945L2.84 20.861c-.53-1.745.314-3.5 1.94-4.08l3.564-1.257a3.107 3.107 0 0 0 1.977-2.112l1.027-3.664a3.14 3.14 0 0 1 3.347-2.283c.191.017.381.048.568.095l3.83.941c.185.047.373.079.562.095a3.243 3.243 0 0 0 2.323-.7l2.889-2.368a3.227 3.227 0 0 1 2.32-.671Z" fill="url(#ribbon_svg__b)" stroke="#21294C" stroke-width="1.334" stroke-linecap="round" stroke-linejoin="round"></path><path d="M39.665 9.56a3.434 3.434 0 0 0-.568 0l-3.83.313a3.36 3.36 0 0 1-.562 0 3.783 3.783 0 0 1-2.324-1.086l-2.875-2.841a3.767 3.767 0 0 0-2.324-1.086 3.24 3.24 0 0 0-2.33.7l-2.884 2.367a3.243 3.243 0 0 1-2.323.7 3.454 3.454 0 0 1-.563-.094l-3.83-.942a3.635 3.635 0 0 0-.568-.094 3.14 3.14 0 0 0-3.347 2.282l-1.026 3.664a3.108 3.108 0 0 1-1.978 2.113L4.77 16.812c-1.633.571-2.471 2.326-1.94 4.081l1.164 3.799a3.37 3.37 0 0 1-.436 2.945l-2.17 3.045c-.992 1.397-.712 3.41.654 4.662l2.979 2.728a3.796 3.796 0 0 1 1.256 2.844l-.085 3.878a3.833 3.833 0 0 0 3.036 3.767l3.852.797 28.428-39.095a3.695 3.695 0 0 0-1.843-.704Z" fill="url(#ribbon_svg__c)" stroke="#21294C" stroke-width="1.334" stroke-linecap="round" stroke-linejoin="round"></path><path d="m14.671 22.532 4.396-4.179a12.809 12.809 0 0 1 9.983-3.406l-4.395 4.176a12.811 12.811 0 0 0-9.984 3.41Z" fill="#21303B" stroke="#21303B" stroke-width="1.334" stroke-linecap="round" stroke-linejoin="round"></path><path d="m38.987 39.34-4.395 4.176a12.767 12.767 0 0 0 3.922-9.337c.015-7.673-6.192-14.407-13.858-15.045l4.395-4.175c7.667.628 13.873 7.372 13.858 15.044a12.773 12.773 0 0 1-3.922 9.337Z" fill="url(#ribbon_svg__d)" stroke="#21294C" stroke-width="1.334" stroke-linecap="round" stroke-linejoin="round"></path><path d="M24.654 19.136c7.666.628 13.873 7.372 13.857 15.044-.016 7.673-6.241 13.38-13.908 12.747-7.666-.635-13.87-7.372-13.857-15.045.012-7.673 6.244-13.38 13.908-12.746Z" fill="url(#ribbon_svg__e)" stroke="#21294C" stroke-width="1.334" stroke-linecap="round" stroke-linejoin="round"></path><path d="M30.164 42.194c-.364 0-.734-.016-1.102-.044-7.315-.606-13.255-7.058-13.242-14.38a6.386 6.386 0 0 1 7.679-8.014c.364 0 .735.015 1.102.044 7.315.606 13.258 7.057 13.245 14.378a6.39 6.39 0 0 1-7.682 8.016Z" fill="#F1F3F6"></path><path d="M23.497 20.423c.345 0 .697 0 1.046.044 6.979.577 12.645 6.728 12.633 13.713a5.793 5.793 0 0 1-7.014 7.35 13.1 13.1 0 0 1-1.045-.044c-6.98-.578-12.646-6.728-12.63-13.714a5.79 5.79 0 0 1 7.01-7.35Zm0-1.335a6.989 6.989 0 0 0-8.348 8.684c0 7.673 6.191 14.407 13.858 15.041.39.035.775.05 1.155.05a6.985 6.985 0 0 0 8.348-8.683c.016-7.673-6.19-14.407-13.857-15.044a14.33 14.33 0 0 0-1.156-.048Z" fill="#21294C"></path><path d="m22.993 26.377 2.546 3.937 4.36 1.548-2.78 3.368.184 4.54-4.26-1.856-4.241 1.26.144-4.515-2.81-3.761 4.352-.936 2.505-3.585Z" fill="#F6C865" stroke="#21294C" stroke-width="1.334" stroke-linecap="round" stroke-linejoin="round"></path><defs><linearGradient id="ribbon_svg__a" x1="47.197" y1="78.64" x2="38.422" y2="54.871" gradientUnits="userSpaceOnUse"><stop stop-color="#B7EAD5"></stop><stop offset="0.19" stop-color="#B4E6D6"></stop><stop offset="0.37" stop-color="#ACDCD8"></stop><stop offset="0.54" stop-color="#9FC9DB"></stop><stop offset="0.7" stop-color="#8CB0E0"></stop><stop offset="0.85" stop-color="#748FE6"></stop><stop offset="1" stop-color="#5869ED"></stop></linearGradient><linearGradient id="ribbon_svg__b" x1="18.378" y1="42.91" x2="46.351" y2="7.44" gradientUnits="userSpaceOnUse"><stop stop-color="#F2B3E5"></stop><stop offset="1" stop-color="#5869ED"></stop></linearGradient><linearGradient id="ribbon_svg__c" x1="2.013" y1="42.066" x2="29.804" y2="4.034" gradientUnits="userSpaceOnUse"><stop offset="0.47" stop-color="#F4BD98"></stop><stop offset="1" stop-color="#F6C865"></stop></linearGradient><linearGradient id="ribbon_svg__d" x1="40.755" y1="37.783" x2="28.116" y2="17.916" gradientUnits="userSpaceOnUse"><stop stop-color="#8FADF8"></stop><stop offset="1" stop-color="#94F7C1"></stop></linearGradient><linearGradient id="ribbon_svg__e" x1="35.243" y1="42.852" x2="15.678" y2="24.753" gradientUnits="userSpaceOnUse"><stop stop-color="#21303B"></stop><stop offset="1" stop-color="#8D7FF6"></stop></linearGradient></defs></svg>