<svg width="83" viewBox="0 0 83 80" fill="none" xmlns="http://www.w3.org/2000/svg"><g clip-path="url(#raised_svg__a)" stroke="#21294C" stroke-width="1.324" stroke-linecap="round" stroke-linejoin="round"><path d="m10.6 79.336-4.863-3.919-.118-27.67 4.863 3.922.118 27.667Z" fill="url(#raised_svg__b)"></path><path d="m15.04 35.104 9.156 15.31-4.627.423.119 27.668-9.088.832-.118-27.668-4.464.408 9.022-16.973Z" fill="url(#raised_svg__c)"></path><path d="m6.017 52.077-4.863-3.922 9.023-16.97 4.863 3.92-9.023 16.972Z" fill="url(#raised_svg__d)"></path><path d="m43.76 32.989 4.365-4.143-.087 45.958-4.362 4.146.084-45.961Z" fill="#21303B"></path><path d="m39.277 16.533 9.16 16.845-4.677-.39-.084 45.962-9.187-.76.084-45.961-4.508-.371 9.212-15.325Z" fill="url(#raised_svg__e)"></path><path d="m39.277 16.533 4.365-4.146 9.16 16.845-4.365 4.146-9.16-16.845Z" fill="url(#raised_svg__f)"></path><path d="m72.556 21.275 4.365-4.147-.106 57.448-4.365 4.147.106-57.448Z" fill="url(#raised_svg__g)"></path><path d="m67.995 4.807 9.153 16.848-4.592-.38-.106 57.448-9.184-.76.106-57.451-4.592-.377 9.215-15.328Z" fill="url(#raised_svg__h)"></path><path d="M67.995 4.807 72.36.664l9.153 16.844-4.365 4.147-9.153-16.848Z" fill="url(#raised_svg__i)"></path></g><defs><linearGradient id="raised_svg__b" x1="8.108" y1="50.962" x2="8.108" y2="77.579" gradientUnits="userSpaceOnUse"><stop stop-color="#21303B"></stop><stop offset="1" stop-color="#294487"></stop></linearGradient><linearGradient id="raised_svg__c" x1="15.205" y1="79.187" x2="15.055" y2="36.924" gradientUnits="userSpaceOnUse"><stop stop-color="#5869ED"></stop><stop offset="1" stop-color="#F2B3E5"></stop></linearGradient><linearGradient id="raised_svg__d" x1="12.416" y1="33.637" x2="3.457" y2="50.214" gradientUnits="userSpaceOnUse"><stop stop-color="#E7EAFD"></stop><stop offset="0.2" stop-color="#DEEAF6"></stop><stop offset="0.52" stop-color="#C6EAE2"></stop><stop offset="0.7" stop-color="#B7EAD5"></stop></linearGradient><linearGradient id="raised_svg__e" x1="2315.65" y1="3374.55" x2="2315.65" y2="15560.2" gradientUnits="userSpaceOnUse"><stop stop-color="#E7EAFD"></stop><stop offset="0.2" stop-color="#DEEAF6"></stop><stop offset="0.52" stop-color="#C6EAE2"></stop><stop offset="0.7" stop-color="#B7EAD5"></stop></linearGradient><linearGradient id="raised_svg__f" x1="2242.86" y1="2168.84" x2="1546.98" y2="1384.55" gradientUnits="userSpaceOnUse"><stop stop-color="#5869ED"></stop><stop offset="1" stop-color="#F2B3E5"></stop></linearGradient><linearGradient id="raised_svg__g" x1="1137.16" y1="4158.11" x2="1137.16" y2="15350.4" gradientUnits="userSpaceOnUse"><stop stop-color="#21303B"></stop><stop offset="1" stop-color="#294487"></stop></linearGradient><linearGradient id="raised_svg__h" x1="67.964" y1="79.146" x2="67.964" y2="6.524" gradientUnits="userSpaceOnUse"><stop stop-color="#F4BD98"></stop><stop offset="1" stop-color="#F6C865"></stop></linearGradient><linearGradient id="raised_svg__i" x1="78.778" y1="18.979" x2="70.712" y2="3.296" gradientUnits="userSpaceOnUse"><stop offset="0.3" stop-color="#B7EAD5"></stop><stop offset="0.48" stop-color="#C6EAE2"></stop><stop offset="0.8" stop-color="#DEEAF6"></stop><stop offset="1" stop-color="#E7EAFD"></stop></linearGradient><clipPath id="raised_svg__a"><path fill="#fff" transform="translate(.49)" d="M0 0h81.685v80H0z"></path></clipPath></defs></svg>